<svg width="650" height="650" viewBox="0 0 650 650" fill="none" xmlns="http://www.w3.org/2000/svg">
<rect width="650" height="650" fill="white"/>
<path fill-rule="evenodd" clip-rule="evenodd" d="M550 325C550 449.264 449.264 550 325 550C262.494 550 205.942 524.512 165.168 483.363C169.956 479.664 174.571 475.753 179 471.644C214.686 504.755 262.479 525 315 525C425.457 525 515 435.457 515 325C515 214.543 425.457 125 315 125C262.479 125 214.686 145.245 179 178.356C174.571 174.247 169.956 170.336 165.168 166.637C205.942 125.488 262.494 100 325 100C449.264 100 550 200.736 550 325Z" fill="#2B2B2B"/>
<path d="M185.514 315.798C189.288 318.018 193.173 321.015 197.169 324.789C201.165 328.341 204.717 332.781 207.825 338.109C211.155 343.437 213.819 349.764 215.817 357.09C218.037 364.194 219.147 372.519 219.147 382.065C219.147 396.939 215.373 409.26 207.825 419.028C201.387 427.686 192.951 434.346 182.517 439.008C178.077 441.006 173.748 442.56 169.53 443.67C165.534 444.558 161.76 445.335 158.208 446.001C154.656 446.445 151.659 446.778 149.217 447C146.775 447 145.221 447 144.555 447H143.889H51.648C49.206 447 46.986 446.112 44.988 444.336C43.212 442.338 42.324 440.007 42.324 437.343V206.907C42.324 204.243 43.212 202.023 44.988 200.247C46.986 198.249 49.206 197.25 51.648 197.25H144.888C145.11 197.25 146.109 197.361 147.885 197.583C149.883 197.583 152.325 197.916 155.211 198.582C158.319 199.026 161.76 199.803 165.534 200.913C169.308 201.801 173.193 203.133 177.189 204.909C187.179 209.571 195.06 216.009 200.832 224.223C204.384 229.329 206.937 235.101 208.491 241.539C210.267 247.755 211.155 254.415 211.155 261.519C211.155 268.845 210.267 275.394 208.491 281.166C206.937 286.938 204.828 292.044 202.164 296.484C199.5 300.702 196.503 304.365 193.173 307.473C189.843 310.359 186.513 312.801 183.183 314.799C184.071 315.243 184.848 315.576 185.514 315.798ZM174.858 421.359C191.73 413.811 200.166 400.713 200.166 382.065C200.166 358.533 192.063 341.994 175.857 332.448C169.419 328.896 163.203 326.787 157.209 326.121C151.215 325.233 147.552 324.789 146.22 324.789H145.554C142.89 324.567 140.67 323.568 138.894 321.792C137.118 320.016 136.23 317.796 136.23 315.132C136.008 312.69 136.785 310.581 138.561 308.805C140.559 306.807 142.779 305.697 145.221 305.475H146.22C146.886 305.475 147.996 305.475 149.55 305.475C151.326 305.253 153.324 304.92 155.544 304.476C157.986 304.032 160.65 303.366 163.536 302.478C166.422 301.59 169.197 300.369 171.861 298.815C185.403 291.711 192.174 279.279 192.174 261.519C192.174 243.093 184.626 229.995 169.53 222.225C166.422 220.893 163.425 219.894 160.539 219.228C157.653 218.34 154.989 217.785 152.547 217.563C150.327 217.119 148.44 216.897 146.886 216.897C145.554 216.675 144.888 216.564 144.888 216.564H61.305V305.475H106.593C109.257 305.475 111.477 306.474 113.253 308.472C115.251 310.248 116.25 312.468 116.25 315.132C116.25 317.574 115.251 319.794 113.253 321.792C111.477 323.79 109.257 324.789 106.593 324.789H61.305V427.686H143.889H144.555C144.777 427.686 145.776 427.686 147.552 427.686C149.55 427.464 151.992 427.242 154.878 427.02C157.764 426.576 160.872 425.91 164.202 425.022C167.754 424.134 171.306 422.913 174.858 421.359ZM414.758 292.155C412.094 292.155 409.763 291.267 407.765 289.491C405.767 287.715 404.768 285.384 404.768 282.498C404.768 281.166 404.657 279.612 404.435 277.836C403.991 274.95 403.325 270.954 402.437 265.848C399.329 253.194 393.668 242.871 385.454 234.879C372.578 221.781 353.93 215.232 329.51 215.232C311.972 215.232 298.097 218.34 287.885 224.556C277.895 230.772 270.347 238.986 265.241 249.198C260.135 259.41 256.916 270.954 255.584 283.83C254.252 296.484 253.586 309.249 253.586 322.125C253.586 326.565 253.586 331.56 253.586 337.11C253.808 342.66 254.252 348.543 254.918 354.759C255.584 360.753 256.583 366.858 257.915 373.074C259.247 379.29 261.134 385.284 263.576 391.056C274.676 416.364 296.654 429.018 329.51 429.018C361.478 429.018 383.456 417.696 395.444 395.052C397.664 390.834 399.44 386.616 400.772 382.398C402.104 378.18 402.992 374.517 403.436 371.409C404.102 368.079 404.435 365.415 404.435 363.417C404.657 361.419 404.768 360.42 404.768 360.42C404.768 357.756 405.767 355.536 407.765 353.76C409.763 351.984 412.094 351.096 414.758 351.096C417.422 351.096 419.642 351.984 421.418 353.76C423.194 355.536 424.082 357.756 424.082 360.42C424.082 360.642 423.971 362.085 423.749 364.749C423.749 367.191 423.305 370.521 422.417 374.739C421.751 378.735 420.641 383.397 419.087 388.725C417.533 393.831 415.313 399.048 412.427 404.376C409.763 409.482 406.211 414.588 401.771 419.694C397.331 424.8 391.781 429.573 385.121 434.013C378.461 438.231 370.58 441.672 361.478 444.336C352.376 447 341.72 448.332 329.51 448.332C307.532 448.332 289.439 443.67 275.231 434.346C263.021 425.688 253.253 413.811 245.927 398.715C243.041 392.055 240.821 385.284 239.267 378.402C237.713 371.298 236.492 364.416 235.604 357.756C234.938 350.874 234.605 344.436 234.605 338.442C234.383 332.226 234.272 326.787 234.272 322.125C234.272 317.019 234.383 311.358 234.605 305.142C234.605 298.926 234.938 292.488 235.604 285.828C236.27 279.168 237.38 272.397 238.934 265.515C240.488 258.633 242.708 251.973 245.594 245.535C249.146 237.765 253.364 230.994 258.248 225.222C263.132 219.45 268.682 214.344 274.898 209.904C289.106 200.58 307.31 195.918 329.51 195.918C359.258 195.918 382.568 204.354 399.44 221.226C405.434 227.442 410.096 233.991 413.426 240.873C416.756 247.755 419.198 254.193 420.752 260.187C422.306 266.181 423.194 271.287 423.416 275.505C423.86 279.501 424.082 281.832 424.082 282.498V282.831C424.082 285.495 423.194 287.715 421.418 289.491C419.642 291.267 417.422 292.155 414.758 292.155Z" fill="#2B2B2B"/>
</svg>
